<mxfile host="app.diagrams.net" modified="2024-06-06T07:06:18.404Z" agent="Mozilla/5.0 (Windows NT 10.0; Win64; x64) AppleWebKit/537.36 (KHTML, like Gecko) Chrome/125.0.0.0 Safari/537.36" etag="k55y4T9svedBmV59QBi_" version="24.4.14" type="device">
  <diagram name="Page-1" id="0VGaeFTGs92yQDg1di8v">
    <mxGraphModel dx="1004" dy="673" grid="1" gridSize="10" guides="1" tooltips="1" connect="1" arrows="1" fold="1" page="1" pageScale="1" pageWidth="850" pageHeight="1100" math="0" shadow="0">
      <root>
        <mxCell id="0" />
        <mxCell id="1" parent="0" />
        <mxCell id="ey-FooL_eUkVxvqIl3-N-12" value="" style="edgeStyle=orthogonalEdgeStyle;rounded=0;orthogonalLoop=1;jettySize=auto;html=1;" edge="1" parent="1" source="ey-FooL_eUkVxvqIl3-N-1" target="ey-FooL_eUkVxvqIl3-N-4">
          <mxGeometry relative="1" as="geometry" />
        </mxCell>
        <mxCell id="ey-FooL_eUkVxvqIl3-N-1" value="" style="shape=sumEllipse;perimeter=ellipsePerimeter;whiteSpace=wrap;html=1;backgroundOutline=1;strokeWidth=2;" vertex="1" parent="1">
          <mxGeometry x="140" y="150" width="80" height="80" as="geometry" />
        </mxCell>
        <mxCell id="ey-FooL_eUkVxvqIl3-N-13" value="" style="edgeStyle=orthogonalEdgeStyle;rounded=0;orthogonalLoop=1;jettySize=auto;html=1;" edge="1" parent="1" source="ey-FooL_eUkVxvqIl3-N-4" target="ey-FooL_eUkVxvqIl3-N-5">
          <mxGeometry relative="1" as="geometry" />
        </mxCell>
        <mxCell id="ey-FooL_eUkVxvqIl3-N-4" value="" style="rounded=1;whiteSpace=wrap;html=1;absoluteArcSize=1;arcSize=14;strokeWidth=2;" vertex="1" parent="1">
          <mxGeometry x="280" y="140" width="100" height="100" as="geometry" />
        </mxCell>
        <mxCell id="ey-FooL_eUkVxvqIl3-N-14" style="edgeStyle=orthogonalEdgeStyle;rounded=0;orthogonalLoop=1;jettySize=auto;html=1;exitX=0.5;exitY=1;exitDx=0;exitDy=0;entryX=1;entryY=0.5;entryDx=0;entryDy=0;" edge="1" parent="1" source="ey-FooL_eUkVxvqIl3-N-5" target="ey-FooL_eUkVxvqIl3-N-6">
          <mxGeometry relative="1" as="geometry" />
        </mxCell>
        <mxCell id="ey-FooL_eUkVxvqIl3-N-17" style="edgeStyle=orthogonalEdgeStyle;rounded=0;orthogonalLoop=1;jettySize=auto;html=1;exitX=1;exitY=0.5;exitDx=0;exitDy=0;" edge="1" parent="1" source="ey-FooL_eUkVxvqIl3-N-5">
          <mxGeometry relative="1" as="geometry">
            <mxPoint x="710" y="190" as="targetPoint" />
          </mxGeometry>
        </mxCell>
        <mxCell id="ey-FooL_eUkVxvqIl3-N-5" value="" style="rounded=1;whiteSpace=wrap;html=1;absoluteArcSize=1;arcSize=14;strokeWidth=2;" vertex="1" parent="1">
          <mxGeometry x="500" y="140" width="100" height="100" as="geometry" />
        </mxCell>
        <mxCell id="ey-FooL_eUkVxvqIl3-N-15" style="edgeStyle=orthogonalEdgeStyle;rounded=0;orthogonalLoop=1;jettySize=auto;html=1;exitX=0;exitY=0.5;exitDx=0;exitDy=0;entryX=0.5;entryY=1;entryDx=0;entryDy=0;" edge="1" parent="1" source="ey-FooL_eUkVxvqIl3-N-6" target="ey-FooL_eUkVxvqIl3-N-1">
          <mxGeometry relative="1" as="geometry" />
        </mxCell>
        <mxCell id="ey-FooL_eUkVxvqIl3-N-6" value="" style="rounded=1;whiteSpace=wrap;html=1;absoluteArcSize=1;arcSize=14;strokeWidth=2;" vertex="1" parent="1">
          <mxGeometry x="390" y="270" width="100" height="100" as="geometry" />
        </mxCell>
        <mxCell id="ey-FooL_eUkVxvqIl3-N-10" value="" style="edgeStyle=orthogonalEdgeStyle;rounded=0;orthogonalLoop=1;jettySize=auto;html=1;" edge="1" parent="1" source="ey-FooL_eUkVxvqIl3-N-7" target="ey-FooL_eUkVxvqIl3-N-8">
          <mxGeometry relative="1" as="geometry" />
        </mxCell>
        <mxCell id="ey-FooL_eUkVxvqIl3-N-7" value="" style="rounded=1;whiteSpace=wrap;html=1;absoluteArcSize=1;arcSize=14;strokeWidth=2;" vertex="1" parent="1">
          <mxGeometry x="230" y="520" width="100" height="100" as="geometry" />
        </mxCell>
        <mxCell id="ey-FooL_eUkVxvqIl3-N-11" value="" style="edgeStyle=orthogonalEdgeStyle;rounded=0;orthogonalLoop=1;jettySize=auto;html=1;" edge="1" parent="1" source="ey-FooL_eUkVxvqIl3-N-8" target="ey-FooL_eUkVxvqIl3-N-9">
          <mxGeometry relative="1" as="geometry" />
        </mxCell>
        <mxCell id="ey-FooL_eUkVxvqIl3-N-8" value="" style="rounded=1;whiteSpace=wrap;html=1;absoluteArcSize=1;arcSize=14;strokeWidth=2;" vertex="1" parent="1">
          <mxGeometry x="390" y="520" width="100" height="100" as="geometry" />
        </mxCell>
        <mxCell id="ey-FooL_eUkVxvqIl3-N-9" value="" style="rounded=1;whiteSpace=wrap;html=1;absoluteArcSize=1;arcSize=14;strokeWidth=2;" vertex="1" parent="1">
          <mxGeometry x="550" y="520" width="100" height="100" as="geometry" />
        </mxCell>
        <mxCell id="ey-FooL_eUkVxvqIl3-N-16" value="" style="endArrow=classic;html=1;rounded=0;entryX=0;entryY=0.5;entryDx=0;entryDy=0;" edge="1" parent="1" target="ey-FooL_eUkVxvqIl3-N-1">
          <mxGeometry width="50" height="50" relative="1" as="geometry">
            <mxPoint x="50" y="190" as="sourcePoint" />
            <mxPoint x="50" y="150" as="targetPoint" />
          </mxGeometry>
        </mxCell>
        <mxCell id="ey-FooL_eUkVxvqIl3-N-18" value="&lt;b&gt;Close Loop&lt;/b&gt;" style="text;html=1;align=center;verticalAlign=middle;whiteSpace=wrap;rounded=0;" vertex="1" parent="1">
          <mxGeometry x="380" y="80" width="90" height="30" as="geometry" />
        </mxCell>
        <mxCell id="ey-FooL_eUkVxvqIl3-N-19" value="&lt;b&gt;Open Loop&lt;/b&gt;" style="text;html=1;align=center;verticalAlign=middle;whiteSpace=wrap;rounded=0;" vertex="1" parent="1">
          <mxGeometry x="395" y="470" width="90" height="30" as="geometry" />
        </mxCell>
      </root>
    </mxGraphModel>
  </diagram>
</mxfile>
